<svg xmlns="http://www.w3.org/2000/svg" width="1920" height="1080"><path d="M205,1240L-9,1250L327,1244Z" fill="#3c7076" stroke="#3c7076" stroke-width="1.51"/><path d="M327,1244L-9,1250L573,1271Z" fill="#3b757d" stroke="#3b757d" stroke-width="1.51"/><path d="M-117,-171L139,-175L667,-185Z" fill="#139633" stroke="#139633" stroke-width="1.51"/><path d="M139,-175L285,-166L667,-185Z" fill="#1e9a42" stroke="#1e9a42" stroke-width="1.51"/><path d="M809,1271L573,1271L1011,1280Z" fill="#2d75ac" stroke="#2d75ac" stroke-width="1.51"/><path d="M667,-185L950,-158L1270,-187Z" fill="#379272" stroke="#379272" stroke-width="1.51"/><path d="M1398,1264L1226,1264L1566,1279Z" fill="#1a56b7" stroke="#1a56b7" stroke-width="1.51"/><path d="M1226,1264L1011,1280L1566,1279Z" fill="#1a5db3" stroke="#1a5db3" stroke-width="1.51"/><path d="M667,-185L1270,-187L1677,-200Z" fill="#3b8576" stroke="#3b8576" stroke-width="1.51"/><path d="M1711,1265L1566,1279L1989,1273Z" fill="#0e43b3" stroke="#0e43b3" stroke-width="1.51"/><path d="M2029,680L2013,776L2040,893Z" fill="#1c5bbb" stroke="#1c5bbb" stroke-width="1.51"/><path d="M1976,162L1962,275L2056,144Z" fill="#3d7991" stroke="#3d7991" stroke-width="1.51"/><path d="M1935,401L2052,454L2073,303Z" fill="#327baf" stroke="#327baf" stroke-width="1.51"/><path d="M2056,144L1962,275L2073,303Z" fill="#3a7896" stroke="#3a7896" stroke-width="1.51"/><path d="M2046,-175L1899,-41L2088,-42Z" fill="#3c676e" stroke="#3c676e" stroke-width="1.51"/><path d="M2008,30L2056,144L2088,-42Z" fill="#3c7177" stroke="#3c7177" stroke-width="1.51"/><path d="M2056,144L2073,303L2088,-42Z" fill="#3b7581" stroke="#3b7581" stroke-width="1.51"/><path d="M2052,454L1914,571L2097,531Z" fill="#2b71b3" stroke="#2b71b3" stroke-width="1.51"/><path d="M1914,571L2029,680L2097,531Z" fill="#266bb6" stroke="#266bb6" stroke-width="1.51"/><path d="M2040,893L2055,966L2097,531Z" fill="#1b59b8" stroke="#1b59b8" stroke-width="1.51"/><path d="M2029,680L2040,893L2097,531Z" fill="#1b61b5" stroke="#1b61b5" stroke-width="1.51"/><path d="M2073,303L2052,454L2097,531Z" fill="#2e76ac" stroke="#2e76ac" stroke-width="1.51"/><path d="M2055,966L2057,1094L2097,531Z" fill="#1953b9" stroke="#1953b9" stroke-width="1.51"/><path d="M2088,-42L2073,303L2097,531Z" fill="#367695" stroke="#367695" stroke-width="1.51"/><path d="M1903,1127L2039,1257L2057,1094Z" fill="#0b41ad" stroke="#0b41ad" stroke-width="1.51"/><path d="M1899,-41L2008,30L2088,-42Z" fill="#3d6e75" stroke="#3d6e75" stroke-width="1.51"/><path d="M1903,1127L1989,1273L2039,1257Z" fill="#083fa6" stroke="#083fa6" stroke-width="1.51"/><path d="M1972,-200L1899,-41L2046,-175Z" fill="#3d656c" stroke="#3d656c" stroke-width="1.51"/><path d="M2055,966L1890,956L2057,1094Z" fill="#1448c3" stroke="#1448c3" stroke-width="1.51"/><path d="M1890,956L1903,1127L2057,1094Z" fill="#1347bf" stroke="#1347bf" stroke-width="1.51"/><path d="M1962,275L1935,401L2073,303Z" fill="#377ba8" stroke="#377ba8" stroke-width="1.51"/><path d="M1935,90L1976,162L2008,30Z" fill="#407883" stroke="#407883" stroke-width="1.51"/><path d="M1961,736L2013,776L2029,680Z" fill="#1d61ba" stroke="#1d61ba" stroke-width="1.51"/><path d="M2013,776L1913,868L2040,893Z" fill="#1c57c1" stroke="#1c57c1" stroke-width="1.51"/><path d="M1935,401L1914,571L2052,454Z" fill="#3076b8" stroke="#3076b8" stroke-width="1.51"/><path d="M2040,893L1890,956L2055,966Z" fill="#184ec4" stroke="#184ec4" stroke-width="1.51"/><path d="M2008,30L1976,162L2056,144Z" fill="#3d7782" stroke="#3d7782" stroke-width="1.51"/><path d="M1962,706L1961,736L2029,680Z" fill="#1e64bc" stroke="#1e64bc" stroke-width="1.51"/><path d="M1914,571L1962,706L2029,680Z" fill="#2269bb" stroke="#2269bb" stroke-width="1.51"/><path d="M1913,868L1890,956L2040,893Z" fill="#1c53c7" stroke="#1c53c7" stroke-width="1.51"/><path d="M1677,-200L1779,-143L1972,-200Z" fill="#446776" stroke="#446776" stroke-width="1.51"/><path d="M1780,1217L1711,1265L1989,1273Z" fill="#0c41b0" stroke="#0c41b0" stroke-width="1.51"/><path d="M1961,736L1913,868L2013,776Z" fill="#1e5dc1" stroke="#1e5dc1" stroke-width="1.51"/><path d="M1899,-41L1935,90L2008,30Z" fill="#40737e" stroke="#40737e" stroke-width="1.51"/><path d="M1818,171L1962,275L1976,162Z" fill="#407c9a" stroke="#407c9a" stroke-width="1.51"/><path d="M1903,1127L1856,1145L1989,1273Z" fill="#0d42b1" stroke="#0d42b1" stroke-width="1.51"/><path d="M1856,1145L1780,1217L1989,1273Z" fill="#0d42b1" stroke="#0d42b1" stroke-width="1.51"/><path d="M1808,532L1914,571L1935,401Z" fill="#3277c0" stroke="#3277c0" stroke-width="1.51"/><path d="M1810,784L1913,868L1961,736Z" fill="#215fc7" stroke="#215fc7" stroke-width="1.51"/><path d="M1914,571L1831,704L1962,706Z" fill="#246ac2" stroke="#246ac2" stroke-width="1.51"/><path d="M1797,303L1935,401L1962,275Z" fill="#3b7fb1" stroke="#3b7fb1" stroke-width="1.51"/><path d="M1779,-143L1899,-41L1972,-200Z" fill="#416975" stroke="#416975" stroke-width="1.51"/><path d="M1935,90L1818,171L1976,162Z" fill="#427b90" stroke="#427b90" stroke-width="1.51"/><path d="M1899,-41L1837,44L1935,90Z" fill="#437684" stroke="#437684" stroke-width="1.51"/><path d="M1890,956L1806,991L1903,1127Z" fill="#184ccc" stroke="#184ccc" stroke-width="1.51"/><path d="M1831,704L1810,784L1961,736Z" fill="#2265c8" stroke="#2265c8" stroke-width="1.51"/><path d="M1831,704L1961,736L1962,706Z" fill="#2165c2" stroke="#2165c2" stroke-width="1.51"/><path d="M1818,171L1797,303L1962,275Z" fill="#417fa7" stroke="#417fa7" stroke-width="1.51"/><path d="M1779,-143L1827,-34L1899,-41Z" fill="#446f7e" stroke="#446f7e" stroke-width="1.51"/><path d="M1777,434L1808,532L1935,401Z" fill="#367cc3" stroke="#367cc3" stroke-width="1.51"/><path d="M1797,303L1777,434L1935,401Z" fill="#3a82c0" stroke="#3a82c0" stroke-width="1.51"/><path d="M1837,44L1818,171L1935,90Z" fill="#447c8e" stroke="#447c8e" stroke-width="1.51"/><path d="M1827,-34L1837,44L1899,-41Z" fill="#447482" stroke="#447482" stroke-width="1.51"/><path d="M1806,991L1856,1145L1903,1127Z" fill="#1549c4" stroke="#1549c4" stroke-width="1.51"/><path d="M1773,865L1890,956L1913,868Z" fill="#1f57cf" stroke="#1f57cf" stroke-width="1.51"/><path d="M1810,784L1773,865L1913,868Z" fill="#225dcf" stroke="#225dcf" stroke-width="1.51"/><path d="M1808,532L1831,704L1914,571Z" fill="#2b71c5" stroke="#2b71c5" stroke-width="1.51"/><path d="M1773,865L1806,991L1890,956Z" fill="#1f54d3" stroke="#1f54d3" stroke-width="1.51"/><path d="M1808,532L1715,607L1831,704Z" fill="#2d72cb" stroke="#2d72cb" stroke-width="1.51"/><path d="M1806,991L1664,1076L1856,1145Z" fill="#184dce" stroke="#184dce" stroke-width="1.51"/><path d="M1664,1076L1780,1217L1856,1145Z" fill="#1549c4" stroke="#1549c4" stroke-width="1.51"/><path d="M1736,411L1777,434L1797,303Z" fill="#3d85c6" stroke="#3d85c6" stroke-width="1.51"/><path d="M1773,865L1726,909L1806,991Z" fill="#2157d8" stroke="#2157d8" stroke-width="1.51"/><path d="M1683,219L1797,303L1818,171Z" fill="#4682ad" stroke="#4682ad" stroke-width="1.51"/><path d="M1779,-143L1750,-20L1827,-34Z" fill="#477283" stroke="#477283" stroke-width="1.51"/><path d="M1666,62L1818,171L1837,44Z" fill="#498094" stroke="#498094" stroke-width="1.51"/><path d="M1750,-20L1666,62L1837,44Z" fill="#4a7b90" stroke="#4a7b90" stroke-width="1.51"/><path d="M1827,-34L1750,-20L1837,44Z" fill="#477788" stroke="#477788" stroke-width="1.51"/><path d="M1726,909L1727,972L1806,991Z" fill="#2054db" stroke="#2054db" stroke-width="1.51"/><path d="M1727,972L1664,1076L1806,991Z" fill="#1d51da" stroke="#1d51da" stroke-width="1.51"/><path d="M1690,755L1810,784L1831,704Z" fill="#2568d1" stroke="#2568d1" stroke-width="1.51"/><path d="M1715,607L1690,755L1831,704Z" fill="#276ed1" stroke="#276ed1" stroke-width="1.51"/><path d="M1683,219L1681,275L1797,303Z" fill="#4684b7" stroke="#4684b7" stroke-width="1.51"/><path d="M1666,62L1683,219L1818,171Z" fill="#4a83a2" stroke="#4a83a2" stroke-width="1.51"/><path d="M1777,434L1681,507L1808,532Z" fill="#377dcc" stroke="#377dcc" stroke-width="1.51"/><path d="M1690,755L1773,865L1810,784Z" fill="#2563d4" stroke="#2563d4" stroke-width="1.51"/><path d="M1681,507L1715,607L1808,532Z" fill="#3479cf" stroke="#3479cf" stroke-width="1.51"/><path d="M1681,275L1736,411L1797,303Z" fill="#4285c0" stroke="#4285c0" stroke-width="1.51"/><path d="M1270,-187L1529,-127L1677,-200Z" fill="#477780" stroke="#477780" stroke-width="1.51"/><path d="M1619,-150L1599,-63L1750,-20Z" fill="#4c768e" stroke="#4c768e" stroke-width="1.51"/><path d="M1690,755L1629,819L1773,865Z" fill="#2764db" stroke="#2764db" stroke-width="1.51"/><path d="M1736,411L1681,507L1777,434Z" fill="#3a81cc" stroke="#3a81cc" stroke-width="1.51"/><path d="M1619,-150L1750,-20L1779,-143Z" fill="#497185" stroke="#497185" stroke-width="1.51"/><path d="M1677,-200L1619,-150L1779,-143Z" fill="#496d81" stroke="#496d81" stroke-width="1.51"/><path d="M1664,1076L1711,1265L1780,1217Z" fill="#1448c3" stroke="#1448c3" stroke-width="1.51"/><path d="M1629,819L1726,909L1773,865Z" fill="#255fdc" stroke="#255fdc" stroke-width="1.51"/><path d="M1639,456L1681,507L1736,411Z" fill="#3b83d1" stroke="#3b83d1" stroke-width="1.51"/><path d="M1599,-63L1666,62L1750,-20Z" fill="#4c7b93" stroke="#4c7b93" stroke-width="1.51"/><path d="M1664,1076L1591,1078L1711,1265Z" fill="#194dcf" stroke="#194dcf" stroke-width="1.51"/><path d="M1591,1078L1566,1279L1711,1265Z" fill="#164cc6" stroke="#164cc6" stroke-width="1.51"/><path d="M1587,614L1690,755L1715,607Z" fill="#2d73d8" stroke="#2d73d8" stroke-width="1.51"/><path d="M1681,275L1639,456L1736,411Z" fill="#4088ce" stroke="#4088ce" stroke-width="1.51"/><path d="M1599,-63L1593,33L1666,62Z" fill="#4d7f96" stroke="#4d7f96" stroke-width="1.51"/><path d="M1726,909L1551,996L1727,972Z" fill="#2358e4" stroke="#2358e4" stroke-width="1.51"/><path d="M1551,996L1664,1076L1727,972Z" fill="#2053e2" stroke="#2053e2" stroke-width="1.51"/><path d="M1629,819L1551,996L1726,909Z" fill="#265ee3" stroke="#265ee3" stroke-width="1.51"/><path d="M1546,280L1639,456L1681,275Z" fill="#448ac9" stroke="#448ac9" stroke-width="1.51"/><path d="M1681,507L1587,614L1715,607Z" fill="#347ad6" stroke="#347ad6" stroke-width="1.51"/><path d="M1518,126L1573,235L1666,62Z" fill="#4c89a6" stroke="#4c89a6" stroke-width="1.51"/><path d="M1529,-127L1619,-150L1677,-200Z" fill="#4a7185" stroke="#4a7185" stroke-width="1.51"/><path d="M1630,496L1587,614L1681,507Z" fill="#387ed6" stroke="#387ed6" stroke-width="1.51"/><path d="M1666,62L1573,235L1683,219Z" fill="#4d86ad" stroke="#4d86ad" stroke-width="1.51"/><path d="M1539,848L1551,996L1629,819Z" fill="#2864e0" stroke="#2864e0" stroke-width="1.51"/><path d="M1546,280L1508,423L1639,456Z" fill="#3f8ed0" stroke="#3f8ed0" stroke-width="1.51"/><path d="M1551,996L1591,1078L1664,1076Z" fill="#2055dc" stroke="#2055dc" stroke-width="1.51"/><path d="M1639,456L1630,496L1681,507Z" fill="#3b81d5" stroke="#3b81d5" stroke-width="1.51"/><path d="M1527,785L1629,819L1690,755Z" fill="#2a6add" stroke="#2a6add" stroke-width="1.51"/><path d="M1587,614L1527,785L1690,755Z" fill="#2a72da" stroke="#2a72da" stroke-width="1.51"/><path d="M1593,33L1518,126L1666,62Z" fill="#4d869b" stroke="#4d869b" stroke-width="1.51"/><path d="M1573,235L1681,275L1683,219Z" fill="#4a88b9" stroke="#4a88b9" stroke-width="1.51"/><path d="M1573,235L1546,280L1681,275Z" fill="#488abb" stroke="#488abb" stroke-width="1.51"/><path d="M1270,-187L1360,-124L1529,-127Z" fill="#437f80" stroke="#437f80" stroke-width="1.51"/><path d="M1469,1190L1566,1279L1591,1078Z" fill="#1b52c7" stroke="#1b52c7" stroke-width="1.51"/><path d="M1466,704L1527,785L1587,614Z" fill="#2a77d8" stroke="#2a77d8" stroke-width="1.51"/><path d="M1477,525L1587,614L1630,496Z" fill="#3682d5" stroke="#3682d5" stroke-width="1.51"/><path d="M1508,423L1630,496L1639,456Z" fill="#3c87d3" stroke="#3c87d3" stroke-width="1.51"/><path d="M1529,-127L1599,-63L1619,-150Z" fill="#4a7789" stroke="#4a7789" stroke-width="1.51"/><path d="M1527,785L1539,848L1629,819Z" fill="#2a6bdd" stroke="#2a6bdd" stroke-width="1.51"/><path d="M1508,423L1477,525L1630,496Z" fill="#3988d2" stroke="#3988d2" stroke-width="1.51"/><path d="M950,-158L1070,-147L1270,-187Z" fill="#398d77" stroke="#398d77" stroke-width="1.51"/><path d="M1529,-127L1529,-87L1599,-63Z" fill="#4a7a8a" stroke="#4a7a8a" stroke-width="1.51"/><path d="M1539,848L1486,990L1551,996Z" fill="#2862e2" stroke="#2862e2" stroke-width="1.51"/><path d="M1518,126L1516,229L1573,235Z" fill="#498dae" stroke="#498dae" stroke-width="1.51"/><path d="M1439,1113L1469,1190L1591,1078Z" fill="#1f57ce" stroke="#1f57ce" stroke-width="1.51"/><path d="M1529,-87L1593,33L1599,-63Z" fill="#4b7d90" stroke="#4b7d90" stroke-width="1.51"/><path d="M1509,277L1508,423L1546,280Z" fill="#4290c4" stroke="#4290c4" stroke-width="1.51"/><path d="M1529,-87L1518,126L1593,33Z" fill="#4b8595" stroke="#4b8595" stroke-width="1.51"/><path d="M1551,996L1486,990L1591,1078Z" fill="#245bdf" stroke="#245bdf" stroke-width="1.51"/><path d="M1486,990L1439,1113L1591,1078Z" fill="#235bd8" stroke="#235bd8" stroke-width="1.51"/><path d="M1371,-51L1518,126L1529,-87Z" fill="#488691" stroke="#488691" stroke-width="1.51"/><path d="M1477,525L1466,704L1587,614Z" fill="#3080d5" stroke="#3080d5" stroke-width="1.51"/><path d="M1371,-51L1397,118L1518,126Z" fill="#468f96" stroke="#468f96" stroke-width="1.51"/><path d="M1434,883L1486,990L1539,848Z" fill="#2a67df" stroke="#2a67df" stroke-width="1.51"/><path d="M1516,229L1546,280L1573,235Z" fill="#478db7" stroke="#478db7" stroke-width="1.51"/><path d="M1469,1190L1398,1264L1566,1279Z" fill="#1a52bd" stroke="#1a52bd" stroke-width="1.51"/><path d="M1394,563L1466,704L1477,525Z" fill="#3085d3" stroke="#3085d3" stroke-width="1.51"/><path d="M1413,326L1508,423L1509,277Z" fill="#3f93c6" stroke="#3f93c6" stroke-width="1.51"/><path d="M1516,229L1509,277L1546,280Z" fill="#468eb9" stroke="#468eb9" stroke-width="1.51"/><path d="M1413,326L1402,375L1508,423Z" fill="#3c95ca" stroke="#3c95ca" stroke-width="1.51"/><path d="M1527,785L1434,883L1539,848Z" fill="#2a6ddc" stroke="#2a6ddc" stroke-width="1.51"/><path d="M1397,118L1516,229L1518,126Z" fill="#4790a5" stroke="#4790a5" stroke-width="1.51"/><path d="M1360,-124L1371,-51L1529,-87Z" fill="#458287" stroke="#458287" stroke-width="1.51"/><path d="M1360,-124L1529,-87L1529,-127Z" fill="#477d85" stroke="#477d85" stroke-width="1.51"/><path d="M1466,704L1394,741L1527,785Z" fill="#2a77d7" stroke="#2a77d7" stroke-width="1.51"/><path d="M1394,741L1434,883L1527,785Z" fill="#2a73da" stroke="#2a73da" stroke-width="1.51"/><path d="M1394,563L1401,699L1466,704Z" fill="#2b81d3" stroke="#2b81d3" stroke-width="1.51"/><path d="M1413,326L1509,277L1516,229Z" fill="#4491ba" stroke="#4491ba" stroke-width="1.51"/><path d="M1397,118L1413,326L1516,229Z" fill="#4493b0" stroke="#4493b0" stroke-width="1.51"/><path d="M1402,375L1477,525L1508,423Z" fill="#3990cf" stroke="#3990cf" stroke-width="1.51"/><path d="M1397,118L1332,146L1413,326Z" fill="#4396a9" stroke="#4396a9" stroke-width="1.51"/><path d="M1402,375L1394,563L1477,525Z" fill="#368fcf" stroke="#368fcf" stroke-width="1.51"/><path d="M1326,1027L1439,1113L1486,990Z" fill="#2561d8" stroke="#2561d8" stroke-width="1.51"/><path d="M1434,883L1326,1027L1486,990Z" fill="#2966df" stroke="#2966df" stroke-width="1.51"/><path d="M1290,415L1394,563L1402,375Z" fill="#3595cc" stroke="#3595cc" stroke-width="1.51"/><path d="M1401,699L1394,741L1466,704Z" fill="#287dd5" stroke="#287dd5" stroke-width="1.51"/><path d="M1439,1113L1398,1264L1469,1190Z" fill="#1d58c3" stroke="#1d58c3" stroke-width="1.51"/><path d="M1394,741L1314,846L1434,883Z" fill="#2a75d9" stroke="#2a75d9" stroke-width="1.51"/><path d="M1371,-51L1272,99L1397,118Z" fill="#429293" stroke="#429293" stroke-width="1.51"/><path d="M1332,146L1234,231L1413,326Z" fill="#3e99af" stroke="#3e99af" stroke-width="1.51"/><path d="M1314,846L1326,1027L1434,883Z" fill="#2a6edc" stroke="#2a6edc" stroke-width="1.51"/><path d="M1267,1128L1398,1264L1439,1113Z" fill="#1f5dc5" stroke="#1f5dc5" stroke-width="1.51"/><path d="M1321,1075L1267,1128L1439,1113Z" fill="#2362cd" stroke="#2362cd" stroke-width="1.51"/><path d="M1326,1027L1321,1075L1439,1113Z" fill="#2462d3" stroke="#2462d3" stroke-width="1.51"/><path d="M1290,415L1288,580L1394,563Z" fill="#3092cd" stroke="#3092cd" stroke-width="1.51"/><path d="M1288,580L1246,638L1401,699Z" fill="#2989d0" stroke="#2989d0" stroke-width="1.51"/><path d="M1394,563L1288,580L1401,699Z" fill="#2c88d1" stroke="#2c88d1" stroke-width="1.51"/><path d="M1290,415L1402,375L1413,326Z" fill="#3a99c8" stroke="#3a99c8" stroke-width="1.51"/><path d="M1227,341L1290,415L1413,326Z" fill="#379cc4" stroke="#379cc4" stroke-width="1.51"/><path d="M1234,231L1227,341L1413,326Z" fill="#3a9cb9" stroke="#3a9cb9" stroke-width="1.51"/><path d="M1272,99L1332,146L1397,118Z" fill="#42979b" stroke="#42979b" stroke-width="1.51"/><path d="M1267,1128L1226,1264L1398,1264Z" fill="#1d5fbc" stroke="#1d5fbc" stroke-width="1.51"/><path d="M1246,638L1394,741L1401,699Z" fill="#2683d2" stroke="#2683d2" stroke-width="1.51"/><path d="M1215,15L1272,99L1371,-51Z" fill="#3f938d" stroke="#3f938d" stroke-width="1.51"/><path d="M1214,821L1314,846L1394,741Z" fill="#297cd6" stroke="#297cd6" stroke-width="1.51"/><path d="M1246,638L1214,821L1394,741Z" fill="#2683d3" stroke="#2683d3" stroke-width="1.51"/><path d="M285,-166L450,-155L667,-185Z" fill="#269c50" stroke="#269c50" stroke-width="1.51"/><path d="M1122,1247L1011,1280L1226,1264Z" fill="#1f65b2" stroke="#1f65b2" stroke-width="1.51"/><path d="M1314,846L1256,857L1326,1027Z" fill="#2a72da" stroke="#2a72da" stroke-width="1.51"/><path d="M1360,-124L1215,15L1371,-51Z" fill="#418b87" stroke="#418b87" stroke-width="1.51"/><path d="M1256,857L1182,912L1326,1027Z" fill="#2a73da" stroke="#2a73da" stroke-width="1.51"/><path d="M1182,912L1255,1048L1326,1027Z" fill="#2a6ddb" stroke="#2a6ddb" stroke-width="1.51"/><path d="M1270,-187L1162,-98L1360,-124Z" fill="#3e867d" stroke="#3e867d" stroke-width="1.51"/><path d="M1162,-98L1215,15L1360,-124Z" fill="#3d8d83" stroke="#3d8d83" stroke-width="1.51"/><path d="M1154,766L1214,821L1246,638Z" fill="#2487d1" stroke="#2487d1" stroke-width="1.51"/><path d="M1134,515L1288,580L1290,415Z" fill="#2c98cb" stroke="#2c98cb" stroke-width="1.51"/><path d="M1214,821L1256,857L1314,846Z" fill="#297bd6" stroke="#297bd6" stroke-width="1.51"/><path d="M1255,1048L1321,1075L1326,1027Z" fill="#2667d4" stroke="#2667d4" stroke-width="1.51"/><path d="M1272,99L1234,231L1332,146Z" fill="#3e9ba0" stroke="#3e9ba0" stroke-width="1.51"/><path d="M1255,1048L1267,1128L1321,1075Z" fill="#2567cf" stroke="#2567cf" stroke-width="1.51"/><path d="M1182,912L1153,1022L1255,1048Z" fill="#2a70d9" stroke="#2a70d9" stroke-width="1.51"/><path d="M1121,160L1234,231L1272,99Z" fill="#3a9f9f" stroke="#3a9f9f" stroke-width="1.51"/><path d="M1227,341L1174,376L1290,415Z" fill="#31a1c5" stroke="#31a1c5" stroke-width="1.51"/><path d="M1174,376L1134,515L1290,415Z" fill="#2da0c8" stroke="#2da0c8" stroke-width="1.51"/><path d="M1134,515L1246,638L1288,580Z" fill="#2893cc" stroke="#2893cc" stroke-width="1.51"/><path d="M1164,308L1227,341L1234,231Z" fill="#35a1b6" stroke="#35a1b6" stroke-width="1.51"/><path d="M1123,693L1154,766L1246,638Z" fill="#218cce" stroke="#218cce" stroke-width="1.51"/><path d="M1122,1247L1226,1264L1267,1128Z" fill="#1e64ba" stroke="#1e64ba" stroke-width="1.51"/><path d="M1122,1088L1122,1247L1267,1128Z" fill="#2269c2" stroke="#2269c2" stroke-width="1.51"/><path d="M1255,1048L1122,1088L1267,1128Z" fill="#256acc" stroke="#256acc" stroke-width="1.51"/><path d="M1070,-147L1162,-98L1270,-187Z" fill="#3a8b7a" stroke="#3a8b7a" stroke-width="1.51"/><path d="M1215,15L1110,90L1272,99Z" fill="#3a9c8f" stroke="#3a9c8f" stroke-width="1.51"/><path d="M1110,90L1121,160L1272,99Z" fill="#39a096" stroke="#39a096" stroke-width="1.51"/><path d="M1153,1022L1122,1088L1255,1048Z" fill="#276ed1" stroke="#276ed1" stroke-width="1.51"/><path d="M1214,821L1182,912L1256,857Z" fill="#297bd6" stroke="#297bd6" stroke-width="1.51"/><path d="M1134,515L1123,693L1246,638Z" fill="#2593cc" stroke="#2593cc" stroke-width="1.51"/><path d="M1121,160L1164,308L1234,231Z" fill="#37a2aa" stroke="#37a2aa" stroke-width="1.51"/><path d="M1164,308L1174,376L1227,341Z" fill="#31a3bd" stroke="#31a3bd" stroke-width="1.51"/><path d="M1154,766L1182,912L1214,821Z" fill="#2880d4" stroke="#2880d4" stroke-width="1.51"/><path d="M1057,44L1110,90L1215,15Z" fill="#399e8c" stroke="#399e8c" stroke-width="1.51"/><path d="M1162,-98L1090,-86L1215,15Z" fill="#399382" stroke="#399382" stroke-width="1.51"/><path d="M1090,-86L1057,44L1215,15Z" fill="#399987" stroke="#399987" stroke-width="1.51"/><path d="M1121,160L1038,233L1164,308Z" fill="#36a5a9" stroke="#36a5a9" stroke-width="1.51"/><path d="M980,425L1134,515L1174,376Z" fill="#2da5c6" stroke="#2da5c6" stroke-width="1.51"/><path d="M993,986L1153,1022L1182,912Z" fill="#2f77d8" stroke="#2f77d8" stroke-width="1.51"/><path d="M986,914L993,986L1182,912Z" fill="#327dd6" stroke="#327dd6" stroke-width="1.51"/><path d="M1154,766L1020,799L1182,912Z" fill="#2b84d3" stroke="#2b84d3" stroke-width="1.51"/><path d="M1020,799L986,914L1182,912Z" fill="#3082d4" stroke="#3082d4" stroke-width="1.51"/><path d="M980,655L1123,693L1134,515Z" fill="#2897ca" stroke="#2897ca" stroke-width="1.51"/><path d="M1164,308L1013,283L1174,376Z" fill="#33a6b9" stroke="#33a6b9" stroke-width="1.51"/><path d="M1013,283L980,425L1174,376Z" fill="#30aabf" stroke="#30aabf" stroke-width="1.51"/><path d="M1026,-30L1057,44L1090,-86Z" fill="#389b84" stroke="#389b84" stroke-width="1.51"/><path d="M1070,-147L1090,-86L1162,-98Z" fill="#39917c" stroke="#39917c" stroke-width="1.51"/><path d="M1038,233L1013,283L1164,308Z" fill="#35a8af" stroke="#35a8af" stroke-width="1.51"/><path d="M986,1107L1122,1247L1122,1088Z" fill="#296ec1" stroke="#296ec1" stroke-width="1.51"/><path d="M973,525L980,655L1134,515Z" fill="#2c9ec9" stroke="#2c9ec9" stroke-width="1.51"/><path d="M1123,693L1020,799L1154,766Z" fill="#288bcf" stroke="#288bcf" stroke-width="1.51"/><path d="M993,986L1122,1088L1153,1022Z" fill="#2e74d2" stroke="#2e74d2" stroke-width="1.51"/><path d="M986,1107L1011,1280L1122,1247Z" fill="#276cb8" stroke="#276cb8" stroke-width="1.51"/><path d="M980,425L973,525L1134,515Z" fill="#2ea4c7" stroke="#2ea4c7" stroke-width="1.51"/><path d="M1110,90L1038,233L1121,160Z" fill="#38a59c" stroke="#38a59c" stroke-width="1.51"/><path d="M993,986L986,1107L1122,1088Z" fill="#3075cd" stroke="#3075cd" stroke-width="1.51"/><path d="M980,655L1020,799L1123,693Z" fill="#2891cd" stroke="#2891cd" stroke-width="1.51"/><path d="M1057,44L1038,233L1110,90Z" fill="#37a695" stroke="#37a695" stroke-width="1.51"/><path d="M915,119L1038,233L1057,44Z" fill="#37a996" stroke="#37a996" stroke-width="1.51"/><path d="M915,119L913,151L1038,233Z" fill="#36ac9b" stroke="#36ac9b" stroke-width="1.51"/><path d="M1070,-147L1026,-30L1090,-86Z" fill="#39957e" stroke="#39957e" stroke-width="1.51"/><path d="M950,-158L1026,-30L1070,-147Z" fill="#38967a" stroke="#38967a" stroke-width="1.51"/><path d="M986,1107L882,1219L1011,1280Z" fill="#2b71b8" stroke="#2b71b8" stroke-width="1.51"/><path d="M980,655L920,751L1020,799Z" fill="#2c93cd" stroke="#2c93cd" stroke-width="1.51"/><path d="M1026,-30L954,10L1057,44Z" fill="#37a086" stroke="#37a086" stroke-width="1.51"/><path d="M954,10L915,119L1057,44Z" fill="#36a78a" stroke="#36a78a" stroke-width="1.51"/><path d="M950,-158L954,10L1026,-30Z" fill="#379c7e" stroke="#379c7e" stroke-width="1.51"/><path d="M913,151L1013,283L1038,233Z" fill="#36aca5" stroke="#36aca5" stroke-width="1.51"/><path d="M914,1108L882,1219L986,1107Z" fill="#3076c0" stroke="#3076c0" stroke-width="1.51"/><path d="M877,292L980,425L1013,283Z" fill="#32afb8" stroke="#32afb8" stroke-width="1.51"/><path d="M913,151L877,292L1013,283Z" fill="#35afa7" stroke="#35afa7" stroke-width="1.51"/><path d="M868,852L986,914L1020,799Z" fill="#3389d1" stroke="#3389d1" stroke-width="1.51"/><path d="M912,681L920,751L980,655Z" fill="#2a98cb" stroke="#2a98cb" stroke-width="1.51"/><path d="M887,1047L986,1107L993,986Z" fill="#347ace" stroke="#347ace" stroke-width="1.51"/><path d="M882,1219L809,1271L1011,1280Z" fill="#2a71af" stroke="#2a71af" stroke-width="1.51"/><path d="M920,751L868,852L1020,799Z" fill="#318fce" stroke="#318fce" stroke-width="1.51"/><path d="M973,525L886,547L980,655Z" fill="#2da1c7" stroke="#2da1c7" stroke-width="1.51"/><path d="M950,-158L833,-66L954,10Z" fill="#369e7c" stroke="#369e7c" stroke-width="1.51"/><path d="M907,460L973,525L980,425Z" fill="#2eaac5" stroke="#2eaac5" stroke-width="1.51"/><path d="M887,1047L914,1108L986,1107Z" fill="#3379c8" stroke="#3379c8" stroke-width="1.51"/><path d="M886,547L912,681L980,655Z" fill="#2b9ec8" stroke="#2b9ec8" stroke-width="1.51"/><path d="M877,292L907,460L980,425Z" fill="#2fb2c2" stroke="#2fb2c2" stroke-width="1.51"/><path d="M986,914L817,947L993,986Z" fill="#3883d5" stroke="#3883d5" stroke-width="1.51"/><path d="M817,947L887,1047L993,986Z" fill="#3a80d5" stroke="#3a80d5" stroke-width="1.51"/><path d="M667,-185L777,-100L950,-158Z" fill="#349d72" stroke="#349d72" stroke-width="1.51"/><path d="M868,852L817,947L986,914Z" fill="#3888d2" stroke="#3888d2" stroke-width="1.51"/><path d="M907,460L886,547L973,525Z" fill="#2ea8c5" stroke="#2ea8c5" stroke-width="1.51"/><path d="M877,292L811,440L907,460Z" fill="#2fb4c1" stroke="#2fb4c1" stroke-width="1.51"/><path d="M835,127L915,119L954,10Z" fill="#34ad8b" stroke="#34ad8b" stroke-width="1.51"/><path d="M833,-66L835,127L954,10Z" fill="#34a984" stroke="#34a984" stroke-width="1.51"/><path d="M777,-100L833,-66L950,-158Z" fill="#359e77" stroke="#359e77" stroke-width="1.51"/><path d="M886,547L793,614L912,681Z" fill="#2da3c7" stroke="#2da3c7" stroke-width="1.51"/><path d="M835,127L877,292L913,151Z" fill="#34b19d" stroke="#34b19d" stroke-width="1.51"/><path d="M819,1109L882,1219L914,1108Z" fill="#3279bf" stroke="#3279bf" stroke-width="1.51"/><path d="M912,681L759,811L920,751Z" fill="#3098cb" stroke="#3098cb" stroke-width="1.51"/><path d="M759,811L868,852L920,751Z" fill="#3493cd" stroke="#3493cd" stroke-width="1.51"/><path d="M835,127L740,204L877,292Z" fill="#33b49f" stroke="#33b49f" stroke-width="1.51"/><path d="M774,308L811,440L877,292Z" fill="#31b6b8" stroke="#31b6b8" stroke-width="1.51"/><path d="M811,440L886,547L907,460Z" fill="#2fadc3" stroke="#2fadc3" stroke-width="1.51"/><path d="M793,614L759,811L912,681Z" fill="#2d9ec8" stroke="#2d9ec8" stroke-width="1.51"/><path d="M887,1047L819,1109L914,1108Z" fill="#367cc7" stroke="#367cc7" stroke-width="1.51"/><path d="M835,127L913,151L915,119Z" fill="#35af93" stroke="#35af93" stroke-width="1.51"/><path d="M833,-66L690,-17L835,127Z" fill="#32ac82" stroke="#32ac82" stroke-width="1.51"/><path d="M795,913L817,947L868,852Z" fill="#3a8cd1" stroke="#3a8cd1" stroke-width="1.51"/><path d="M740,204L774,308L877,292Z" fill="#33b7aa" stroke="#33b7aa" stroke-width="1.51"/><path d="M819,1109L809,1271L882,1219Z" fill="#3077b6" stroke="#3077b6" stroke-width="1.51"/><path d="M811,440L768,524L886,547Z" fill="#2faec3" stroke="#2faec3" stroke-width="1.51"/><path d="M817,947L819,1109L887,1047Z" fill="#3a80ce" stroke="#3a80ce" stroke-width="1.51"/><path d="M768,524L793,614L886,547Z" fill="#2ea9c4" stroke="#2ea9c4" stroke-width="1.51"/><path d="M681,701L759,811L793,614Z" fill="#2fa1c8" stroke="#2fa1c8" stroke-width="1.51"/><path d="M759,811L795,913L868,852Z" fill="#3991cf" stroke="#3991cf" stroke-width="1.51"/><path d="M638,1229L573,1271L809,1271Z" fill="#3379a6" stroke="#3379a6" stroke-width="1.51"/><path d="M638,1229L809,1271L819,1109Z" fill="#327bb4" stroke="#327bb4" stroke-width="1.51"/><path d="M626,1141L638,1229L819,1109Z" fill="#387fb6" stroke="#387fb6" stroke-width="1.51"/><path d="M817,947L620,964L819,1109Z" fill="#3f87d1" stroke="#3f87d1" stroke-width="1.51"/><path d="M777,-100L690,-17L833,-66Z" fill="#32a77a" stroke="#32a77a" stroke-width="1.51"/><path d="M632,71L740,204L835,127Z" fill="#30b790" stroke="#30b790" stroke-width="1.51"/><path d="M690,-17L632,71L835,127Z" fill="#2fb384" stroke="#2fb384" stroke-width="1.51"/><path d="M620,964L626,1141L819,1109Z" fill="#3e84c2" stroke="#3e84c2" stroke-width="1.51"/><path d="M774,308L637,433L811,440Z" fill="#2ebbbe" stroke="#2ebbbe" stroke-width="1.51"/><path d="M795,913L620,964L817,947Z" fill="#3e8dd1" stroke="#3e8dd1" stroke-width="1.51"/><path d="M637,433L768,524L811,440Z" fill="#2fb5c0" stroke="#2fb5c0" stroke-width="1.51"/><path d="M632,71L650,180L740,204Z" fill="#30b78d" stroke="#30b78d" stroke-width="1.51"/><path d="M768,524L631,531L793,614Z" fill="#2faec3" stroke="#2faec3" stroke-width="1.51"/><path d="M759,811L661,869L795,913Z" fill="#3b94ce" stroke="#3b94ce" stroke-width="1.51"/><path d="M661,869L620,964L795,913Z" fill="#408fcb" stroke="#408fcb" stroke-width="1.51"/><path d="M631,531L681,701L793,614Z" fill="#30a9c1" stroke="#30a9c1" stroke-width="1.51"/><path d="M637,433L631,531L768,524Z" fill="#31b3bb" stroke="#31b3bb" stroke-width="1.51"/><path d="M740,204L659,274L774,308Z" fill="#31b9a6" stroke="#31b9a6" stroke-width="1.51"/><path d="M659,274L637,433L774,308Z" fill="#31bab0" stroke="#31bab0" stroke-width="1.51"/><path d="M667,-185L690,-17L777,-100Z" fill="#31a573" stroke="#31a573" stroke-width="1.51"/><path d="M681,701L651,805L759,811Z" fill="#379cc6" stroke="#379cc6" stroke-width="1.51"/><path d="M651,805L661,869L759,811Z" fill="#3b97c8" stroke="#3b97c8" stroke-width="1.51"/><path d="M667,-185L592,-68L690,-17Z" fill="#2ea56d" stroke="#2ea56d" stroke-width="1.51"/><path d="M650,180L659,274L740,204Z" fill="#31b89a" stroke="#31b89a" stroke-width="1.51"/><path d="M415,1227L327,1244L573,1271Z" fill="#3a778e" stroke="#3a778e" stroke-width="1.51"/><path d="M504,327L637,433L659,274Z" fill="#31baa7" stroke="#31baa7" stroke-width="1.51"/><path d="M631,531L518,638L681,701Z" fill="#33a7b7" stroke="#33a7b7" stroke-width="1.51"/><path d="M582,787L651,805L681,701Z" fill="#399cbf" stroke="#399cbf" stroke-width="1.51"/><path d="M566,46L632,71L690,-17Z" fill="#2cb076" stroke="#2cb076" stroke-width="1.51"/><path d="M592,-68L566,46L690,-17Z" fill="#2cab70" stroke="#2cab70" stroke-width="1.51"/><path d="M543,-110L592,-68L667,-185Z" fill="#2da264" stroke="#2da264" stroke-width="1.51"/><path d="M518,638L582,787L681,701Z" fill="#36a1b8" stroke="#36a1b8" stroke-width="1.51"/><path d="M504,975L531,1144L620,964Z" fill="#4685b9" stroke="#4685b9" stroke-width="1.51"/><path d="M620,964L531,1144L626,1141Z" fill="#4182b6" stroke="#4182b6" stroke-width="1.51"/><path d="M504,327L518,412L637,433Z" fill="#31baa9" stroke="#31baa9" stroke-width="1.51"/><path d="M650,180L570,227L659,274Z" fill="#30b895" stroke="#30b895" stroke-width="1.51"/><path d="M573,930L620,964L661,869Z" fill="#438ec4" stroke="#438ec4" stroke-width="1.51"/><path d="M450,-155L543,-110L667,-185Z" fill="#2b9f5c" stroke="#2b9f5c" stroke-width="1.51"/><path d="M570,227L504,327L659,274Z" fill="#31b898" stroke="#31b898" stroke-width="1.51"/><path d="M651,805L582,787L661,869Z" fill="#3d97c1" stroke="#3d97c1" stroke-width="1.51"/><path d="M582,787L573,930L661,869Z" fill="#4193bf" stroke="#4193bf" stroke-width="1.51"/><path d="M566,46L570,227L632,71Z" fill="#2bb67c" stroke="#2bb67c" stroke-width="1.51"/><path d="M543,487L631,531L637,433Z" fill="#32b3b2" stroke="#32b3b2" stroke-width="1.51"/><path d="M632,71L570,227L650,180Z" fill="#2eb788" stroke="#2eb788" stroke-width="1.51"/><path d="M543,487L518,638L631,531Z" fill="#35adaf" stroke="#35adaf" stroke-width="1.51"/><path d="M626,1141L531,1144L638,1229Z" fill="#3b7daa" stroke="#3b7daa" stroke-width="1.51"/><path d="M531,1144L573,1271L638,1229Z" fill="#397aa2" stroke="#397aa2" stroke-width="1.51"/><path d="M518,412L543,487L637,433Z" fill="#33b6ad" stroke="#33b6ad" stroke-width="1.51"/><path d="M504,975L457,1041L531,1144Z" fill="#4683af" stroke="#4683af" stroke-width="1.51"/><path d="M487,815L573,930L582,787Z" fill="#4294b8" stroke="#4294b8" stroke-width="1.51"/><path d="M573,930L504,975L620,964Z" fill="#478abf" stroke="#478abf" stroke-width="1.51"/><path d="M473,35L491,243L566,46Z" fill="#27b571" stroke="#27b571" stroke-width="1.51"/><path d="M566,46L491,243L570,227Z" fill="#2cb681" stroke="#2cb681" stroke-width="1.51"/><path d="M491,243L504,327L570,227Z" fill="#30b78f" stroke="#30b78f" stroke-width="1.51"/><path d="M518,638L445,707L582,787Z" fill="#389faf" stroke="#389faf" stroke-width="1.51"/><path d="M445,707L487,815L582,787Z" fill="#3e9bb0" stroke="#3e9bb0" stroke-width="1.51"/><path d="M473,35L566,46L592,-68Z" fill="#29ac6a" stroke="#29ac6a" stroke-width="1.51"/><path d="M543,-110L473,35L592,-68Z" fill="#29a764" stroke="#29a764" stroke-width="1.51"/><path d="M487,815L427,914L573,930Z" fill="#4590b4" stroke="#4590b4" stroke-width="1.51"/><path d="M531,1144L415,1227L573,1271Z" fill="#3b7a9a" stroke="#3b7a9a" stroke-width="1.51"/><path d="M504,327L492,396L518,412Z" fill="#32b9a1" stroke="#32b9a1" stroke-width="1.51"/><path d="M418,501L518,638L543,487Z" fill="#35ada7" stroke="#35ada7" stroke-width="1.51"/><path d="M427,914L504,975L573,930Z" fill="#488cb7" stroke="#488cb7" stroke-width="1.51"/><path d="M491,243L485,314L504,327Z" fill="#30b792" stroke="#30b792" stroke-width="1.51"/><path d="M457,1041L425,1099L531,1144Z" fill="#4480a7" stroke="#4480a7" stroke-width="1.51"/><path d="M396,-82L473,35L543,-110Z" fill="#25a65b" stroke="#25a65b" stroke-width="1.51"/><path d="M450,-155L396,-82L543,-110Z" fill="#25a155" stroke="#25a155" stroke-width="1.51"/><path d="M518,412L418,501L543,487Z" fill="#33b3a5" stroke="#33b3a5" stroke-width="1.51"/><path d="M473,35L278,103L491,243Z" fill="#23b36a" stroke="#23b36a" stroke-width="1.51"/><path d="M492,396L418,501L518,412Z" fill="#33b6a2" stroke="#33b6a2" stroke-width="1.51"/><path d="M425,1099L415,1227L531,1144Z" fill="#407c9c" stroke="#407c9c" stroke-width="1.51"/><path d="M278,103L280,218L491,243Z" fill="#25b46d" stroke="#25b46d" stroke-width="1.51"/><path d="M320,633L445,707L518,638Z" fill="#38a3a2" stroke="#38a3a2" stroke-width="1.51"/><path d="M418,501L320,633L518,638Z" fill="#37a9a0" stroke="#37a9a0" stroke-width="1.51"/><path d="M485,314L492,396L504,327Z" fill="#31b89b" stroke="#31b89b" stroke-width="1.51"/><path d="M427,914L457,1041L504,975Z" fill="#4b88b4" stroke="#4b88b4" stroke-width="1.51"/><path d="M445,707L329,749L487,815Z" fill="#3e9ba6" stroke="#3e9ba6" stroke-width="1.51"/><path d="M335,348L485,314L491,243Z" fill="#2fb78c" stroke="#2fb78c" stroke-width="1.51"/><path d="M485,314L363,384L492,396Z" fill="#31b899" stroke="#31b899" stroke-width="1.51"/><path d="M363,384L418,501L492,396Z" fill="#32b69c" stroke="#32b69c" stroke-width="1.51"/><path d="M280,218L335,348L491,243Z" fill="#2cb67e" stroke="#2cb67e" stroke-width="1.51"/><path d="M329,749L427,914L487,815Z" fill="#4394a8" stroke="#4394a8" stroke-width="1.51"/><path d="M335,348L363,384L485,314Z" fill="#30b78f" stroke="#30b78f" stroke-width="1.51"/><path d="M427,914L316,1018L457,1041Z" fill="#4c86ad" stroke="#4c86ad" stroke-width="1.51"/><path d="M396,-82L342,-77L473,35Z" fill="#20a655" stroke="#20a655" stroke-width="1.51"/><path d="M342,-77L278,103L473,35Z" fill="#1cab56" stroke="#1cab56" stroke-width="1.51"/><path d="M329,749L289,913L427,914Z" fill="#4791a2" stroke="#4791a2" stroke-width="1.51"/><path d="M316,1018L425,1099L457,1041Z" fill="#4882a5" stroke="#4882a5" stroke-width="1.51"/><path d="M296,1120L415,1227L425,1099Z" fill="#427c95" stroke="#427c95" stroke-width="1.51"/><path d="M285,-166L396,-82L450,-155Z" fill="#1f9e48" stroke="#1f9e48" stroke-width="1.51"/><path d="M320,633L329,749L445,707Z" fill="#399f9d" stroke="#399f9d" stroke-width="1.51"/><path d="M285,-166L342,-77L396,-82Z" fill="#1ba046" stroke="#1ba046" stroke-width="1.51"/><path d="M296,1120L327,1244L415,1227Z" fill="#3f798b" stroke="#3f798b" stroke-width="1.51"/><path d="M363,384L286,494L418,501Z" fill="#33b294" stroke="#33b294" stroke-width="1.51"/><path d="M286,494L320,633L418,501Z" fill="#36ab95" stroke="#36ab95" stroke-width="1.51"/><path d="M316,1018L296,1120L425,1099Z" fill="#47809b" stroke="#47809b" stroke-width="1.51"/><path d="M289,913L316,1018L427,914Z" fill="#4c89a5" stroke="#4c89a5" stroke-width="1.51"/><path d="M231,852L289,913L329,749Z" fill="#46929a" stroke="#46929a" stroke-width="1.51"/><path d="M223,94L278,103L342,-77Z" fill="#13ac4e" stroke="#13ac4e" stroke-width="1.51"/><path d="M165,-39L223,94L342,-77Z" fill="#12a646" stroke="#12a646" stroke-width="1.51"/><path d="M335,348L286,494L363,384Z" fill="#31b68f" stroke="#31b68f" stroke-width="1.51"/><path d="M289,913L239,957L316,1018Z" fill="#4d879f" stroke="#4d879f" stroke-width="1.51"/><path d="M296,1120L200,1162L327,1244Z" fill="#417986" stroke="#417986" stroke-width="1.51"/><path d="M200,1162L205,1240L327,1244Z" fill="#3e767e" stroke="#3e767e" stroke-width="1.51"/><path d="M215,808L231,852L329,749Z" fill="#449496" stroke="#449496" stroke-width="1.51"/><path d="M320,633L203,658L329,749Z" fill="#39a093" stroke="#39a093" stroke-width="1.51"/><path d="M280,218L174,356L335,348Z" fill="#2ab579" stroke="#2ab579" stroke-width="1.51"/><path d="M170,438L286,494L335,348Z" fill="#31b389" stroke="#31b389" stroke-width="1.51"/><path d="M174,356L170,438L335,348Z" fill="#2fb483" stroke="#2fb483" stroke-width="1.51"/><path d="M225,-121L165,-39L342,-77Z" fill="#13a03e" stroke="#13a03e" stroke-width="1.51"/><path d="M285,-166L225,-121L342,-77Z" fill="#149e3e" stroke="#149e3e" stroke-width="1.51"/><path d="M286,494L203,658L320,633Z" fill="#37a68f" stroke="#37a68f" stroke-width="1.51"/><path d="M215,213L174,356L280,218Z" fill="#28b16e" stroke="#28b16e" stroke-width="1.51"/><path d="M203,658L215,808L329,749Z" fill="#3e9993" stroke="#3e9993" stroke-width="1.51"/><path d="M184,492L203,658L286,494Z" fill="#36a88b" stroke="#36a88b" stroke-width="1.51"/><path d="M239,957L143,1106L296,1120Z" fill="#497e92" stroke="#497e92" stroke-width="1.51"/><path d="M239,957L296,1120L316,1018Z" fill="#4b829a" stroke="#4b829a" stroke-width="1.51"/><path d="M144,1219L-9,1250L205,1240Z" fill="#3c6d73" stroke="#3c6d73" stroke-width="1.51"/><path d="M223,94L215,213L278,103Z" fill="#19b058" stroke="#19b058" stroke-width="1.51"/><path d="M278,103L215,213L280,218Z" fill="#1fb261" stroke="#1fb261" stroke-width="1.51"/><path d="M170,438L184,492L286,494Z" fill="#33ac88" stroke="#33ac88" stroke-width="1.51"/><path d="M143,1106L200,1162L296,1120Z" fill="#447988" stroke="#447988" stroke-width="1.51"/><path d="M139,-175L225,-121L285,-166Z" fill="#139835" stroke="#139835" stroke-width="1.51"/><path d="M231,852L239,957L289,913Z" fill="#4a8b9b" stroke="#4a8b9b" stroke-width="1.51"/><path d="M184,492L73,543L203,658Z" fill="#37a287" stroke="#37a287" stroke-width="1.51"/><path d="M110,247L174,356L215,213Z" fill="#29ae6c" stroke="#29ae6c" stroke-width="1.51"/><path d="M203,658L124,674L215,808Z" fill="#3c978d" stroke="#3c978d" stroke-width="1.51"/><path d="M96,79L215,213L223,94Z" fill="#18ac52" stroke="#18ac52" stroke-width="1.51"/><path d="M165,-39L96,79L223,94Z" fill="#12a646" stroke="#12a646" stroke-width="1.51"/><path d="M231,852L109,930L239,957Z" fill="#4a8797" stroke="#4a8797" stroke-width="1.51"/><path d="M109,930L143,1106L239,957Z" fill="#4d7e97" stroke="#4d7e97" stroke-width="1.51"/><path d="M73,543L124,674L203,658Z" fill="#399c87" stroke="#399c87" stroke-width="1.51"/><path d="M96,79L110,247L215,213Z" fill="#20ab59" stroke="#20ab59" stroke-width="1.51"/><path d="M215,808L109,930L231,852Z" fill="#478b94" stroke="#478b94" stroke-width="1.51"/><path d="M109,930L54,984L143,1106Z" fill="#4c7a92" stroke="#4c7a92" stroke-width="1.51"/><path d="M200,1162L144,1219L205,1240Z" fill="#3e737b" stroke="#3e737b" stroke-width="1.51"/><path d="M124,674L62,820L215,808Z" fill="#41908c" stroke="#41908c" stroke-width="1.51"/><path d="M62,820L109,930L215,808Z" fill="#47888f" stroke="#47888f" stroke-width="1.51"/><path d="M139,-175L165,-39L225,-121Z" fill="#139936" stroke="#139936" stroke-width="1.51"/><path d="M139,-175L106,-51L165,-39Z" fill="#139936" stroke="#139936" stroke-width="1.51"/><path d="M-117,-171L-30,-129L139,-175Z" fill="#138a25" stroke="#138a25" stroke-width="1.51"/><path d="M112,477L73,543L184,492Z" fill="#35a582" stroke="#35a582" stroke-width="1.51"/><path d="M143,1106L144,1219L200,1162Z" fill="#427480" stroke="#427480" stroke-width="1.51"/><path d="M106,-51L96,79L165,-39Z" fill="#13a03e" stroke="#13a03e" stroke-width="1.51"/><path d="M110,247L69,307L174,356Z" fill="#2cac6f" stroke="#2cac6f" stroke-width="1.51"/><path d="M170,438L112,477L184,492Z" fill="#33a983" stroke="#33a983" stroke-width="1.51"/><path d="M22,729L62,820L124,674Z" fill="#3e8e87" stroke="#3e8e87" stroke-width="1.51"/><path d="M112,477L170,438L174,356Z" fill="#31ad82" stroke="#31ad82" stroke-width="1.51"/><path d="M69,307L112,477L174,356Z" fill="#30ad7c" stroke="#30ad7c" stroke-width="1.51"/><path d="M96,79L-24,188L110,247Z" fill="#1fa653" stroke="#1fa653" stroke-width="1.51"/><path d="M69,307L-19,345L112,477Z" fill="#30a978" stroke="#30a978" stroke-width="1.51"/><path d="M-30,-129L106,-51L139,-175Z" fill="#13922f" stroke="#13922f" stroke-width="1.51"/><path d="M54,984L-35,1078L143,1106Z" fill="#487588" stroke="#487588" stroke-width="1.51"/><path d="M-35,1078L-9,1250L143,1106Z" fill="#426e7a" stroke="#426e7a" stroke-width="1.51"/><path d="M143,1106L-9,1250L144,1219Z" fill="#3f6e78" stroke="#3f6e78" stroke-width="1.51"/><path d="M-39,570L-37,701L22,729Z" fill="#39907e" stroke="#39907e" stroke-width="1.51"/><path d="M-39,570L22,729L73,543Z" fill="#39967f" stroke="#39967f" stroke-width="1.51"/><path d="M-30,-129L1,-40L106,-51Z" fill="#139331" stroke="#139331" stroke-width="1.51"/><path d="M-12,31L96,79L106,-51Z" fill="#139e3d" stroke="#139e3d" stroke-width="1.51"/><path d="M1,-40L-12,31L106,-51Z" fill="#139937" stroke="#139937" stroke-width="1.51"/><path d="M-19,345L-53,458L112,477Z" fill="#33a479" stroke="#33a479" stroke-width="1.51"/><path d="M73,543L22,729L124,674Z" fill="#399684" stroke="#399684" stroke-width="1.51"/><path d="M62,820L-58,898L109,930Z" fill="#48818b" stroke="#48818b" stroke-width="1.51"/><path d="M-58,898L54,984L109,930Z" fill="#4b7c8d" stroke="#4b7c8d" stroke-width="1.51"/><path d="M-53,458L73,543L112,477Z" fill="#36a17d" stroke="#36a17d" stroke-width="1.51"/><path d="M-24,188L69,307L110,247Z" fill="#28a760" stroke="#28a760" stroke-width="1.51"/><path d="M-12,31L-24,188L96,79Z" fill="#14a242" stroke="#14a242" stroke-width="1.51"/><path d="M-46,1046L-35,1078L54,984Z" fill="#497286" stroke="#497286" stroke-width="1.51"/><path d="M-24,188L-19,345L69,307Z" fill="#2ba563" stroke="#2ba563" stroke-width="1.51"/><path d="M-53,458L-39,570L73,543Z" fill="#379b7a" stroke="#379b7a" stroke-width="1.51"/><path d="M22,729L-99,780L62,820Z" fill="#418784" stroke="#418784" stroke-width="1.51"/><path d="M-99,780L-58,898L62,820Z" fill="#458185" stroke="#458185" stroke-width="1.51"/><path d="M-39,570L-82,636L-37,701Z" fill="#39907b" stroke="#39907b" stroke-width="1.51"/><path d="M-58,898L-46,1046L54,984Z" fill="#4c758c" stroke="#4c758c" stroke-width="1.51"/><path d="M-58,898L-86,1030L-46,1046Z" fill="#4c7289" stroke="#4c7289" stroke-width="1.51"/><path d="M-24,188L-103,212L-19,345Z" fill="#28a15a" stroke="#28a15a" stroke-width="1.51"/><path d="M-35,1078L-120,1242L-9,1250Z" fill="#3e676f" stroke="#3e676f" stroke-width="1.51"/><path d="M-37,701L-99,780L22,729Z" fill="#3e8980" stroke="#3e8980" stroke-width="1.51"/><path d="M-182,1150L-120,1242L-35,1078Z" fill="#40666f" stroke="#40666f" stroke-width="1.51"/><path d="M-183,72L-103,212L-24,188Z" fill="#1f9c46" stroke="#1f9c46" stroke-width="1.51"/><path d="M-123,418L-53,458L-19,345Z" fill="#32a173" stroke="#32a173" stroke-width="1.51"/><path d="M-183,72L-24,188L-12,31Z" fill="#149d3c" stroke="#149d3c" stroke-width="1.51"/><path d="M-80,-66L-12,31L1,-40Z" fill="#139531" stroke="#139531" stroke-width="1.51"/><path d="M-30,-129L-80,-66L1,-40Z" fill="#138f2b" stroke="#138f2b" stroke-width="1.51"/><path d="M-103,212L-169,276L-19,345Z" fill="#2b9f5c" stroke="#2b9f5c" stroke-width="1.51"/><path d="M-80,-66L-183,72L-12,31Z" fill="#139531" stroke="#139531" stroke-width="1.51"/><path d="M-53,458L-154,502L-39,570Z" fill="#369876" stroke="#369876" stroke-width="1.51"/><path d="M-169,276L-123,418L-19,345Z" fill="#30a068" stroke="#30a068" stroke-width="1.51"/><path d="M-159,934L-86,1030L-58,898Z" fill="#4a7385" stroke="#4a7385" stroke-width="1.51"/><path d="M-86,1030L-182,1150L-35,1078Z" fill="#456a79" stroke="#456a79" stroke-width="1.51"/><path d="M-117,-171L-80,-66L-30,-129Z" fill="#128a24" stroke="#128a24" stroke-width="1.51"/><path d="M-46,1046L-86,1030L-35,1078Z" fill="#486f82" stroke="#486f82" stroke-width="1.51"/><path d="M-82,636L-99,780L-37,701Z" fill="#3b897c" stroke="#3b897c" stroke-width="1.51"/><path d="M-154,502L-82,636L-39,570Z" fill="#389377" stroke="#389377" stroke-width="1.51"/><path d="M-99,780L-159,934L-58,898Z" fill="#467982" stroke="#467982" stroke-width="1.51"/><path d="M-123,418L-154,502L-53,458Z" fill="#349b72" stroke="#349b72" stroke-width="1.51"/><path d="M-154,502L-99,780L-82,636Z" fill="#398d77" stroke="#398d77" stroke-width="1.51"/><path d="M-117,-171L-183,72L-80,-66Z" fill="#128d27" stroke="#128d27" stroke-width="1.51"/><path d="M-159,934L-182,1150L-86,1030Z" fill="#486a7d" stroke="#486a7d" stroke-width="1.51"/><path d="M-183,72L-169,276L-103,212Z" fill="#229a48" stroke="#229a48" stroke-width="1.51"/><path d="M-154,502L-159,934L-99,780Z" fill="#3e837a" stroke="#3e837a" stroke-width="1.51"/><path d="M-169,276L-154,502L-123,418Z" fill="#329d6d" stroke="#329d6d" stroke-width="1.51"/><path d="M-182,1150L-159,934L-154,502Z" fill="#46777d" stroke="#46777d" stroke-width="1.51"/><path d="M-169,276L-182,1150L-154,502Z" fill="#398874" stroke="#398874" stroke-width="1.51"/><path d="M-183,72L-182,1150L-169,276Z" fill="#36936f" stroke="#36936f" stroke-width="1.51"/></svg>